<svg width="300px" height="112px" viewBox="0 0 300 112" version="1.1" xmlns="http://www.w3.org/2000/svg">
<path d="m161.29 74.101 35.779-2.2409 0.10774 0.18315c0.064641 2.381-0.064642 4.9343-0.3663 7.6816l-0.18315 1.5299c-3.0705 23.368-14.243 29.897-44.409 29.897h-1.4437c-9.2222-0.14006-24.79-1.4544-40.207-5.4191l3.092-23.379 24.391 0.58177c6.0871 0.12928 10.526 0.19392 12.465 0.19392h1.4329c8.3064-0.14006 10.989-1.4113 11.722-4.4926 0.46326-1.9716-0.2047-3.1674-2.3917-4.5465l0.010774 0.010774zm-59.987 3.7492-2.8335 20.157c-1.0881 7.5846-4.6434 10.989-12.228 10.989h-11.151c-6.9705 0-8.9852-4.0293-11.926-10.375l-8.8882-17.83 47.016-2.9412h0.010774zm-66.452 4.1586-3.7923 26.988h-31.06l3.523-25.027 31.34-1.9608h-0.010774zm206.39-4.0509-4.2987 31.039h-33.754l3.8462-27.386h1.2497 0.24779l5.9686-0.2047 2.9089-0.53868 0.71106-0.10774 6.184-0.90498 4.7727-0.65719 4.0832-0.58177 1.2282-0.1616c0.94808-0.11851 1.7346-0.2047 2.4887-0.25857l0.89421-0.064642 3.4799-0.17238h-0.010774zm-36.102-44.075 0.59255 0.39862 0.26934 0.22625c2.1439 2.0578 4.2663 4.1371 6.4211 6.184 3.7061 3.5122 7.4446 7.0028 11.161 10.493 0.85112 0.79725 1.8746 1.2174 3.0382 1.2066 4.2771-0.043094 8.5435-0.096962 12.821-0.15083l21.892-0.30166c5.473-0.075415 10.946-0.2047 16.419-0.2047 1.8315 0 3.6199 0.43094 5.1606 1.4652l1.0343 0.75415c1.1743 0.81879 2.4348 1.4221 3.7923 1.9069 0.7757 0.28011 1.5406 0.56023 2.3056 0.85111l4.6973 1.8207 1.0881 0.50636 1.0235 0.50636c0.92653 0.47404 1.8423 0.95885 2.1224 1.1851 1.4329 1.142 1.3467 2.9951-0.18315 3.997-0.66796 0.44172-1.4975 0.63564-2.2517 0.9373l-0.64642 0.21547c-0.87266 0.29089-1.3036 0.4094-1.3036 0.37708l-2.0147 0.52791c-0.33398 0.086189-0.67874 0.1616-1.0127 0.22625l-2.1116 0.37708c-0.86189 0.15083-1.7561 0.29089-2.3056 0.37708l-7.7462 1.045-2.4241 0.28011c-2.1763 0.21547-4.3741 0.28011-6.5504 0.42017-1.3252 0.086189-2.6503 0.18315-3.9755 0.32321l-0.96962 0.11851-1.9392 0.26934c-0.64642 0.086189-1.2928 0.15083-1.95 0.18315-7.9401 0.32321-15.891 0.47404-23.831 0.90498-3.0705 0.1616-6.1194 0.63564-9.1683 1.0774l-5.1067 0.70028-3.2644 0.47404-3.8031 0.56023-0.53868 0.096962-2.1332 0.39862-5.473 0.19392c-1.3036 0-2.5964 0.032321-3.9-0.021547-0.38785-0.010774-0.9373-0.17238-1.0989-0.44172-0.28011-0.48481 0.075415-0.90498 0.52791-1.2174l2.0793-1.5083 2.1116-1.5514 0.33398-0.34476s0.096962-0.90498 0.25857-2.855l-203.19 4.5788h-0.12928l2.4887-17.679h0.32321l200.36 4.4818c-0.74338-1.7346-4.8481-9.3407-12.325-22.797l-0.043094-1.2497 9.0714-0.31243v-0.010774zm-39.905-33.883c11.926 0 26.32 1.5514 38.246 5.57l-2.9412 21.364-12.357-0.1616c-6.4749-0.064642-13.693-0.11851-20.664-0.14006h-4.4387c-7.1214 0-9.7501 0.92653-10.526 4.331-0.46326 2.3271 0.6141 4.0293 6.8089 6.9705l17.96 8.5111c4.2233 2.0039 7.6385 4.0509 10.375 6.2164l-65.471-3.8893c-3.1351-5.6023-3.6092-11.786-2.8119-18.584 2.7796-23.53 16.71-30.188 45.82-30.188zm-53.286 2.1655-6.4103 45.615-30.662-1.8207 4.6865-32.795 1.5406-10.989h7.6169 23.217l0.010773-0.010774zm130.27-0.6141h5.5807c16.85 0.053868 34.562 0.3663 47.382 2.3271l-3.7169 23.379h-35.607c-5.57 0-7.7462 1.5514-8.3603 6.1948l-1.6591 11.851-18.24 0.24779-11.592-10.914-2.0578-1.9823 1.045-7.4015c2.0147-14.706 12.691-23.691 27.246-23.691l-0.021547-0.010774zm-205.38 0.6141c4.2663 0 6.615 1.5622 8.4681 4.2017l19.737 39.011-55.646-3.3075 4.0616-28.906c1.0881-7.5846 4.6434-10.989 12.228-10.989h11.151v-0.010774z" fill="#1F5AA7" fill-rule="nonzero"/>
</svg>
